<svg xmlns="http://www.w3.org/2000/svg" viewBox="0 0 24 24" fill="none">
  <path d="M18.5 3C19.56 3 20.578 3.421 21.328 4.172C22.079 4.922 22.5 5.939 22.5 7V15C22.5 16.061 22.079 17.078 21.328 17.828C20.578 18.579 19.561 19 18.5 19H13.776L9.014 21.857C8.871 21.943 8.708 21.992 8.541 21.999C8.374 22.006 8.207 21.971 8.057 21.897C7.907 21.823 7.778 21.712 7.682 21.576C7.586 21.439 7.525 21.28 7.506 21.114L7.5 21V19H6.5C5.474 19 4.487 18.606 3.743 17.898C3 17.191 2.556 16.225 2.505 15.2L2.5 15V7C2.5 5.939 2.921 4.922 3.672 4.172C4.422 3.421 5.439 3 6.5 3H18.5ZM10.01 8C9.735 8 9.48 8.105 9.293 8.293C9.105 8.48 9 8.735 9 9C9 9.265 9.105 9.52 9.293 9.707C9.48 9.895 9.735 10 10.01 10C10.275 10 10.53 9.895 10.717 9.707C10.905 9.52 11.01 9.265 11.01 9C11.01 8.735 10.905 8.48 10.717 8.293C10.53 8.105 10.275 8 10.01 8ZM15.01 8C14.735 8 14.48 8.105 14.293 8.293C14.105 8.48 14 8.735 14 9C14 9.265 14.105 9.52 14.293 9.707C14.48 9.895 14.735 10 15.01 10C15.275 10 15.53 9.895 15.717 9.707C15.905 9.52 16.01 9.265 16.01 9C16.01 8.735 15.905 8.48 15.717 8.293C15.53 8.105 15.275 8 15.01 8Z" fill="#EBF5FF"/>
</svg>
